<svg width="21" height="24" viewBox="0 0 21 24" fill="none" xmlns="http://www.w3.org/2000/svg">
<path d="M11.6711 18.5455V15.2728C11.7767 14.2478 11.5041 13.2193 10.9123 12.4092C13.1887 12.4092 15.4651 10.7728 15.4651 7.90916C15.5258 6.88643 15.2602 5.88007 14.7063 5.04552C14.9187 4.10461 14.9187 3.12279 14.7063 2.18188C14.7063 2.18188 13.9475 2.18188 12.4299 3.40916C10.4267 3.00007 8.36278 3.00007 6.35957 3.40916C4.84199 2.18188 4.0832 2.18188 4.0832 2.18188C3.85556 3.12279 3.85556 4.10461 4.0832 5.04552C3.5307 5.8767 3.26255 6.88871 3.32441 7.90916C3.32441 10.7728 5.60078 12.4092 7.87716 12.4092C7.58123 12.8101 7.36118 13.2682 7.23218 13.7592C7.10319 14.2501 7.06525 14.7655 7.11836 15.2728V18.5455" stroke="white" stroke-width="1.33333" stroke-linecap="round" stroke-linejoin="round"/>
<path d="M7.875 18C3.92875 20 3.5 16 1.75 16" stroke="white" stroke-width="1.33333" stroke-linecap="round" stroke-linejoin="round"/>
</svg>
