<svg width="18" height="18" viewBox="0 0 18 18" fill="none" xmlns="http://www.w3.org/2000/svg">
<g clip-path="url(#clip0_18_1197)">
<path d="M9.62259 1.63478C9.42717 1.54564 9.21489 1.49951 9.00009 1.49951C8.7853 1.49951 8.57302 1.54564 8.37759 1.63478L1.9501 4.55978C1.81701 4.61846 1.70385 4.71458 1.62442 4.83642C1.54498 4.95827 1.50269 5.10058 1.50269 5.24603C1.50269 5.39148 1.54498 5.53379 1.62442 5.65564C1.70385 5.77748 1.81701 5.8736 1.9501 5.93228L8.3851 8.86478C8.58052 8.95392 8.7928 9.00005 9.0076 9.00005C9.22239 9.00005 9.43467 8.95392 9.6301 8.86478L16.0651 5.93978C16.1982 5.8811 16.3113 5.78498 16.3908 5.66314C16.4702 5.54129 16.5125 5.39898 16.5125 5.25353C16.5125 5.10808 16.4702 4.96577 16.3908 4.84392C16.3113 4.72208 16.1982 4.62596 16.0651 4.56728L9.62259 1.63478Z" stroke="#071638" stroke-width="1.5" stroke-linecap="round" stroke-linejoin="round"/>
<path d="M1.5 9C1.49965 9.14345 1.54044 9.28399 1.61754 9.40496C1.69464 9.52593 1.80482 9.62225 1.935 9.6825L8.385 12.615C8.5794 12.703 8.79035 12.7486 9.00375 12.7486C9.21715 12.7486 9.4281 12.703 9.6225 12.615L16.0575 9.69C16.1903 9.63033 16.3028 9.53332 16.3814 9.4108C16.4599 9.28828 16.5012 9.14555 16.5 9" stroke="#071638" stroke-width="1.5" stroke-linecap="round" stroke-linejoin="round"/>
<path d="M1.5 12.75C1.49965 12.8935 1.54044 13.034 1.61754 13.155C1.69464 13.2759 1.80482 13.3723 1.935 13.4325L8.385 16.365C8.5794 16.453 8.79035 16.4986 9.00375 16.4986C9.21715 16.4986 9.4281 16.453 9.6225 16.365L16.0575 13.44C16.1903 13.3803 16.3028 13.2833 16.3814 13.1608C16.4599 13.0383 16.5012 12.8955 16.5 12.75" stroke="#071638" stroke-width="1.5" stroke-linecap="round" stroke-linejoin="round"/>
</g>
<defs>
<clipPath id="clip0_18_1197">
<rect width="18" height="18" fill="white"/>
</clipPath>
</defs>
</svg>
