<svg width="42" height="42" viewBox="0 0 42 42" fill="none" xmlns="http://www.w3.org/2000/svg">
<path d="M17.5 28H8.75V36.75M24.5 14H33.25V5.25M8.02026 15.756C9.00146 13.3274 10.6443 11.2228 12.762 9.6814C14.8797 8.13998 17.3895 7.22316 20.0021 7.03589C22.6146 6.84862 25.2258 7.39795 27.5417 8.62157C29.8576 9.84519 31.7821 11.6944 33.0997 13.9582M33.9807 26.2449C32.9995 28.6734 31.3567 30.778 29.239 32.3194C27.1213 33.8609 24.614 34.7765 22.0015 34.9638C19.3889 35.151 16.7756 34.6018 14.4597 33.3782C12.1438 32.1546 10.2179 30.3056 8.90039 28.0419" stroke="#071638" stroke-width="2" stroke-linecap="round" stroke-linejoin="round"/>
</svg>
